<svg viewBox="0 0 83 83" fill="none" xmlns="http://www.w3.org/2000/svg"><path d="M70.9986 65.0557C71.8335 67.1519 72.2865 69.3196 72.3577 71.559C72.403 72.9456 72.4094 73.883 72.3771 74.3713C72.3059 75.4747 72.005 76.3795 71.4743 77.0858C70.8045 77.9744 69.7981 78.2478 68.4552 77.9061C66.9473 77.522 65.5106 76.9557 64.145 76.207C60.8542 74.4006 57.7348 72.3321 54.7869 70.0015C41.316 59.3613 30.1765 46.7127 21.3685 32.0559C19.372 28.7261 17.7637 25.9009 16.5438 23.5801C14.8838 20.4261 13.4746 17.2673 12.3161 14.1035C11.8761 12.8992 11.5234 11.5858 11.258 10.1634C10.9441 8.47414 10.9166 7.12986 11.1755 6.13061C11.7612 3.85543 13.5069 2.82037 16.4128 3.02543C19.1924 3.22072 22.0577 3.83427 25.0088 4.86608C25.1642 4.92141 25.1609 4.93931 24.9991 4.91978C24.0607 4.82214 23.1239 4.72612 22.1888 4.63172C20.9365 4.50478 19.9997 4.49827 19.3784 4.6122C16.9871 5.05486 15.7963 6.68231 15.806 9.49455C15.8093 10.3669 16.1587 11.7746 16.8545 13.7178C18.0744 17.1289 19.5499 20.4245 21.2811 23.6045C27.4713 34.9707 34.998 45.3522 43.861 54.7491C49.0546 60.2596 54.5167 64.9792 60.2474 68.9079C61.6259 69.8518 63.3377 70.7062 65.3828 71.4711C67.3955 72.223 68.8694 71.9138 69.8046 70.5435C70.2285 69.9251 70.489 69.0527 70.586 67.9266C70.6572 67.077 70.6799 66.1526 70.654 65.1534C70.6507 65.0232 70.6799 64.9385 70.7413 64.8995C70.7607 64.8874 70.7833 64.882 70.8076 64.8836C70.8318 64.8851 70.8571 64.8937 70.8816 64.9085C70.9062 64.9234 70.9293 64.9443 70.9495 64.9698C70.9698 64.9952 70.9865 65.0245 70.9986 65.0557Z" fill="#FFB136"></path><path d="M58.7261 62.1182C61.3989 62.4795 63.1204 61.8415 63.8906 60.2043C64.2789 59.3808 64.2918 58.2953 63.9294 56.9478C63.3372 54.7507 62.4231 52.4397 61.187 50.0148C56.3752 40.5658 50.2449 32.0868 42.7959 24.5778C38.9873 20.737 34.6917 17.5781 29.9091 15.1011C29.1681 14.717 28.3057 14.525 27.322 14.525C26.5389 14.525 25.9694 14.8749 25.6135 15.5747C25.2025 16.3787 25.0375 17.2494 25.1184 18.1868C25.2608 19.811 25.099 19.8516 24.633 18.3088C24.1282 16.6391 23.9454 14.9514 24.0845 13.2458C24.1816 12.022 24.4534 11.1366 24.9 10.5898C25.5827 9.75331 26.6231 9.52872 28.021 9.91606C29.778 10.4075 31.417 11.1578 32.9379 12.1668C36.575 14.582 39.9516 17.3014 43.0677 20.3252C45.0869 22.2847 47.3035 24.6526 49.7175 27.4291C56.3477 35.0585 61.7759 43.5099 66.002 52.7831C67.1216 55.2438 67.8124 57.9519 68.0745 60.9074C68.2752 63.1663 67.5891 64.5268 66.0165 64.989C65.0943 65.2592 63.8339 65.1534 62.2354 64.6716C60.6337 64.1867 59.362 63.5878 58.4203 62.8749C57.566 62.2272 57.668 61.975 58.7261 62.1182Z" fill="#FFB136"></path></svg>